HIERARCHY
ROOT Hips
{
	OFFSET	0.00	0.00	0.00
	CHANNELS 6 Xposition Yposition Zposition Zrotation Xrotation Yrotation
	JOINT LeftUpLeg
	{
		OFFSET	 0.126116	-0.014019	-0.065224
		CHANNELS 3 Zrotation Xrotation Yrotation
		JOINT LeftLeg
		{
			OFFSET	 0.000000	 0.000000	 0.569914
			CHANNELS 3 Zrotation Xrotation Yrotation
			JOINT LeftFoot
			{
				OFFSET	 0.000000	 0.000000	 0.544423
				CHANNELS 3 Zrotation Xrotation Yrotation
				JOINT LeftToeBase
				{
					OFFSET	 0.000000	 0.000000	 0.207117
					CHANNELS 3 Zrotation Xrotation Yrotation
					End Site
					{
						OFFSET	 0.000000	 0.000000	 0.207117
					}
				}
			}
		}
	}
	JOINT RightUpLeg
	{
		OFFSET	-0.124023	-0.008373	-0.065224
		CHANNELS 3 Zrotation Xrotation Yrotation
		JOINT RightLeg
		{
			OFFSET	 0.000000	 0.000000	 0.570047
			CHANNELS 3 Zrotation Xrotation Yrotation
			JOINT RightFoot
			{
				OFFSET	 0.000000	 0.000000	 0.544354
				CHANNELS 3 Zrotation Xrotation Yrotation
				JOINT RightToeBase
				{
					OFFSET	 0.000000	 0.000000	 0.207540
					CHANNELS 3 Zrotation Xrotation Yrotation
					End Site
					{
						OFFSET	 0.000000	 0.000000	 0.207540
					}
				}
			}
		}
	}
	JOINT Spine
	{
		OFFSET	 0.000184	-0.007763	 0.117403
		CHANNELS 3 Zrotation Xrotation Yrotation
		JOINT Spine1
		{
			OFFSET	 0.000000	 0.000000	 0.137269
			CHANNELS 3 Zrotation Xrotation Yrotation
			JOINT Spine2
			{
				OFFSET	 0.000000	 0.000000	 0.156879
				CHANNELS 3 Zrotation Xrotation Yrotation
				JOINT LeftShoulder
				{
					OFFSET	 0.080501	-0.002496	 0.160144
					CHANNELS 3 Zrotation Xrotation Yrotation
					JOINT LeftArm
					{
						OFFSET	 0.000000	 0.000000	 0.164363
						CHANNELS 3 Zrotation Xrotation Yrotation
						JOINT LeftForeArm
						{
							OFFSET	 0.000000	 0.000000	 0.364576
							CHANNELS 3 Zrotation Xrotation Yrotation
							JOINT LeftHand
							{
								OFFSET	 0.000000	 0.000000	 0.360812
								CHANNELS 3 Zrotation Xrotation Yrotation
								JOINT LeftHandIndex1
								{
									OFFSET	 0.000000	 0.000000	 0.086006
									CHANNELS 3 Zrotation Xrotation Yrotation
									JOINT LeftHandIndex2
									{
										OFFSET	 0.000000	 0.000000	 0.047236
										CHANNELS 3 Zrotation Xrotation Yrotation
										JOINT LeftHandIndex3
										{
											OFFSET	-0.004284	-0.000551	 0.038166
											CHANNELS 3 Zrotation Xrotation Yrotation
											End Site
											{
												OFFSET	-0.004284	-0.000551	 0.038166
											}
										}
									}
								}
							}
						}
					}
				}
				JOINT Neck
				{
					OFFSET	 0.000000	 0.000000	 0.176489
					CHANNELS 3 Zrotation Xrotation Yrotation
					JOINT Head
					{
						OFFSET	 0.000000	-0.001747	 0.077940
						CHANNELS 3 Zrotation Xrotation Yrotation
						End Site
						{
							OFFSET	 0.000000	-0.001747	 0.077940
						}
					}
				}
				JOINT RightShoulder
				{
					OFFSET	-0.080363	 0.000306	 0.159706
					CHANNELS 3 Zrotation Xrotation Yrotation
					JOINT RightArm
					{
						OFFSET	 0.000000	 0.000000	 0.164196
						CHANNELS 3 Zrotation Xrotation Yrotation
						JOINT RightForeArm
						{
							OFFSET	 0.000000	 0.000000	 0.365611
							CHANNELS 3 Zrotation Xrotation Yrotation
							JOINT RightHand
							{
								OFFSET	 0.000000	 0.000000	 0.360648
								CHANNELS 3 Zrotation Xrotation Yrotation
								JOINT RightHandIndex1
								{
									OFFSET	 0.000000	 0.000000	 0.069977
									CHANNELS 3 Zrotation Xrotation Yrotation
									JOINT RightHandIndex2
									{
										OFFSET	 0.000000	 0.000000	 0.052305
										CHANNELS 3 Zrotation Xrotation Yrotation
										JOINT RightHandIndex3
										{
											OFFSET	 0.009002	-0.000782	 0.042196
											CHANNELS 3 Zrotation Xrotation Yrotation
											End Site
											{
												OFFSET	 0.009002	-0.000782	 0.042196
											}
										}
									}
								}
							}
						}
					}
				}
			}
		}
	}
}
MOTION
Frames:    4
Frame Time: 0.03333334
 0.009814	 0.014835	 1.198841	 5.560511	-0.943793	-3.605393	 11.750860	-9.128744	-174.559600	 1.175999	-38.606250	 0.513715	 66.237430	 83.211090	-70.198300	-2.368811	 31.712240	-0.072134	-19.724050	-34.220490	-176.453000	 10.670530	-46.917170	 8.398780	 7.123549	 77.127270	-2.379698	 2.358979	 32.999180	 0.103206	-6.096035	 8.445395	 0.847835	 1.344635	 3.110910	 2.986259	-8.065766	-2.938091	-3.709210	-94.067090	 58.974010	 175.112800	 10.225650	 26.635560	-44.414760	-5.344466	 0.138521	-2.732316	-2.248009	-20.070910	-8.973876	-4.866395	 19.339250	-2.797267	-3.872368	 21.589790	 2.193444	-4.804844	 5.585742	 0.144612	-0.047953	-5.098399	 0.218415	-9.862743	 1.764941	 1.989985	 89.731840	 61.729710	 179.879800	-19.893120	 53.973270	 6.091102	 1.880567	-2.030885	 18.542850	-3.395781	-5.072069	 0.535662	 6.281273	 23.904630	-0.546680	 2.001120	 43.748590	-7.095899	 0.723364	 23.404880	 3.469595
 0.009236	 0.002329	 1.197991	 5.781033	-0.742075	-3.618956	 11.540280	-8.628709	-174.740300	 1.264502	-38.405420	 0.566453	 68.940610	 83.532010	-72.935370	-2.368432	 31.775030	-0.073553	-20.564640	-34.908310	-177.003600	 10.613450	-44.907610	 8.080885	 6.111764	 77.568360	-1.587906	 2.359016	 32.993300	 0.103063	-7.376743	 8.308762	 0.812855	 1.304980	 3.146738	 3.018769	-8.109408	-3.001303	-3.723462	-94.122250	 58.983040	 174.993900	 9.751398	 25.884780	-44.520990	-6.093239	 0.203015	-3.129727	-2.458601	-20.432700	-9.312577	-4.864460	 19.388900	-2.800533	-3.869247	 21.629600	 2.190270	-4.804144	 5.594027	 0.144128	-0.036608	-5.106683	 0.234660	-9.864917	 1.757123	 1.954358	 89.710440	 61.768500	 179.828400	-19.812350	 54.403530	 5.437245	 2.334249	-1.850190	 19.052280	-3.192247	-5.233876	 0.485654	 6.275815	 23.517170	-0.552121	 2.045990	 43.369550	-7.135630	 0.806588	 23.032950	 3.428684
 0.005411	-0.080688	 1.190097	 6.521007	 0.374006	-4.086730	 10.821730	-4.513463	-175.666700	 1.580900	-36.246640	 0.726249	 92.245970	 85.286030	-96.257980	-2.364330	 32.430490	-0.088520	-23.322270	-36.889010	-179.837100	 9.988162	-29.526530	 5.316315	 0.767518	 75.202650	 2.263599	 2.360324	 32.798650	 0.098557	-14.737470	 7.379772	 1.014961	 1.074494	 3.766611	 3.109899	-8.307049	-3.445581	-3.794314	-94.398530	 58.980900	 174.405400	 6.762111	 21.734060	-45.256340	-11.305160	 0.810714	-5.540021	-4.404406	-22.997860	-9.844529	-4.841773	 19.901900	-2.820976	-3.843551	 21.955620	 2.164167	-4.789512	 5.766234	 0.134027	 0.000576	-5.203572	 0.324132	-9.919601	 1.695712	 1.862259	 89.529230	 61.986190	 179.389600	-18.845250	 56.653260	 2.316641	 4.435688	-0.501209	 19.975150	-2.473832	-6.217875	-0.600095	 6.229486	 20.781610	-0.639236	 2.314467	 40.982480	-7.371427	 1.414063	 20.246540	 3.143861
-0.000005	-0.156106	 1.175703	 6.811450	 0.713384	-4.542663	 10.464660	 0.079107	-176.784200	 1.800023	-34.333800	 0.816417	 115.413400	 86.528980	-119.274100	-2.347261	 34.828470	-0.144762	-22.856370	-40.376560	 178.751600	 9.886841	-22.653320	 4.140484	 7.298955	 80.075980	-5.709028	 2.342398	 35.230150	 0.156077	-21.629380	 6.985533	 1.322535	 0.950797	 4.522005	 3.100879	-8.348428	-3.860881	-3.807065	-94.518700	 58.925430	 174.158500	 4.231787	 19.671410	-45.932240	-15.983110	 1.756166	-7.861356	-7.100533	-25.223330	-10.668120	-4.834511	 20.397280	-2.926237	-3.804966	 22.439940	 2.124978	-4.745612	 6.280419	 0.103564	 0.069498	-5.347615	 0.351172	-9.848369	 1.654648	 1.620408	 89.391110	 62.011390	 179.055400	-16.736720	 57.909950	-0.984891	 6.160476	 0.975603	 20.855130	-1.661347	-7.990778	-2.385228	 6.175093	 17.456060	-0.708115	 2.732685	 36.815260	-7.731096	 2.101645	 16.945430	 2.852622
